<?xml version="1.0" encoding="utf-8"?>
<!-- Generator: Adobe Illustrator 16.0.0, SVG Export Plug-In . SVG Version: 6.00 Build 0)  -->
<!DOCTYPE svg PUBLIC "-//W3C//DTD SVG 1.1//EN" "http://www.w3.org/Graphics/SVG/1.1/DTD/svg11.dtd">
<svg version="1.1" id="Layer_1" xmlns="http://www.w3.org/2000/svg" xmlns:xlink="http://www.w3.org/1999/xlink" x="0px" y="0px"
	 width="200px" height="260px" viewBox="0 0 200 260" enable-background="new 0 0 200 260" xml:space="preserve">
<path fill="#4D4D4F" d="M97.369,238.744c-14.177-15.879-19.419-29.493-19.768-32.81c-0.35-3.315-1.048-9.332,4.018-22.116
	c2.083-5.259,3.959-10.024,5.799-14.118c0.031,8.055,0.765,17.071,2.87,26.183c2.784,12.047,6.562,20.165,10.217,28.017
	c4.554,9.783,8.859,19.039,10.546,35.358C108.286,253.477,103.946,246.111,97.369,238.744z M147.489,212.395
	c-0.136-7.533-1.41-12.815-2.913-16.468c-2.929,12.643-7.803,21.042-12.518,29.162c-4.321,7.447-8.459,14.579-10.858,24.81
	C130.542,234.656,147.744,226.516,147.489,212.395z M172.071,97.099c-19.103,1.629-30.982,11.168-30.982,11.168
	c-2.293,3.761-6.77,6.028-9.229,7.044c-0.001,0-0.003,0-0.005,0.001c-0.376-0.522-0.615-0.82-0.615-0.82s-4.192-4.886-5.065-5.758
	c-0.875-0.874-2.622-1.571-3.845-0.699c-1.104,0.787-6.032,1.147-6.988,1.21c-0.956-0.062-5.886-0.423-6.989-1.21
	c-1.223-0.872-2.97-0.175-3.844,0.699c-0.874,0.872-5.066,5.758-5.066,5.758s-0.239,0.298-0.614,0.819h-0.001
	c-2.46-1.016-6.937-3.283-9.228-7.044c0,0-11.881-9.54-30.984-11.168c0,0-6.547,18.488,14.804,28.166
	c-2.81-1.367,9.951,3.76,11.087,3.74c2.394,1.865,8.317,6.804,10.246,11.405c-0.116,0.283-0.204,0.433-0.204,0.433
	s-6.464,26.875-0.174,54.1c6.29,27.222,18.055,34.087,20.967,65.058c2.911-30.971,18.869-37.836,25.159-65.058
	c6.289-27.225-4.367-54.1-4.367-54.1s-0.087-0.147-0.202-0.426c1.926-4.602,7.851-9.542,10.247-11.409
	c1.139,0.019,13.899-5.11,11.091-3.743C178.617,115.587,172.071,97.099,172.071,97.099z M93.718,91.862
	c-0.026-0.013-0.052-0.021-0.078-0.025l0.142,1.046L93.718,91.862z M104.813,101.195c-0.662-0.222-1.179-0.96-1.475-1.331
	c-0.293-0.369-1.915-0.959-2.209-1.033c-0.296-0.074-0.589-1.329-1.252-1.329c-0.663,0-1.104-0.96-1.915-0.885
	c-0.808,0.073-0.88-1.036-1.545-1.036c-0.663,0-0.884-1.328-2.06-1.255c-1.18,0.073-0.739-1.035-0.739-1.035l-1.69-0.52
	c0,0-1.039-1.398-1.703-2.212c-0.662-0.812-1.792-4.875-2.675-6.055c-0.883-1.182-4.378-5.267-5.041-5.783
	c-0.666-0.519-2.8-2.646-2.8-3.015c0-0.857,0.06-0.979-1.563-0.461c-0.979,0.309-0.284,1.354,0.675,2.241
	c0.956,0.885,4.036,5.055,4.162,5.771c0.097,0.581,0.614,3.533-1.735,3.533c-3.018,0-5.741-0.293-7.214-0.886
	c-1.472-0.591-6.626-1.698-8.688-1.771c-2.061-0.075-5.229-2.143-6.774-3.621c-0.782-0.748-1.76-0.818-3.779-4.014
	c0,0-0.954-0.563-2.057-2.448c0.354-1.663,0.852-3.408,1.564-5.134c2.505-6.057,5.155-12.189,1.694-7.684
	c-3.458,4.507-1.986-2.658-4.418,2.293c-0.487,0.996-0.97,1.927-1.434,2.762c-0.258-1.444-0.467-3.075-0.6-4.93
	c-0.008-0.125-0.019-0.242-0.027-0.366c-0.586-12.544,1.253-20.074,0.957-27.089c-0.294-7.018-2.206-13.367-0.88-23.711
	c0,0-2.875,1.848-5.007,7.312c-2.137,5.468-0.665,5.173-0.665,10.194c0,5.023-0.073,8.865-0.368,11.895
	c-0.183,1.887-0.167,5.812-0.272,8.697c0,0,0.281,4.75-2.575,1.366c-0.445-2.062-0.762-4.121-0.762-5.559
	c0-3.546-0.072-9.53-1.618-5.098c-0.468,1.342-0.699,3.412-0.752,5.771c-0.71-1.29-1.502-2.825-2.396-4.654
	c-2.2-4.087-4.145-8.726-4.36-12.637c-0.516-9.307-0.814-14.554,3.239-20.683c4.049-6.132-1.109-2.808-2.65-1.109
	c-1.548,1.699-9.132,10.858-7.292,26.667c0,0,0.662,0.96-3.313,0.884c-3.975-0.072-0.293,1.182,1.032,1.699
	c1.325,0.519,4.342,1.773,5.594,4.875c1.253,3.104,1.989,2.955,2.503,5.54c0.515,2.586,2.653,3.102,3.459,4.729
	c0.195,0.391,0.876,1.631,1.799,3.328c0,0,1.84,2.085,3.652,4.976c0.165,0.695,0.336,1.31,0.512,1.815
	c1.548,4.36,0.444,8.345,1.326,11.08c0.255,0.788,0.71,1.75,1.223,2.802c-0.622,0.272-1.551,0.386-2.921,0.383
	c-4.516,0.059-10.312,0.27-13.321-2.079c-3.313-2.583-6.257-10.488-6.555-12.63c-0.291-2.143-2.206-12.779-3.163-15.142
	c-0.957-2.367-2.356-3.473-2.063,1.476c0.294,4.949,0,17.286,2.65,22.382c2.65,5.097-8.392,5.982-9.939,6.131
	c-1.545,0.149-3.754-0.149-4.122-1.108c-0.367-0.96-1.768-2.954-1.178,0.37c0.589,3.324-0.371,4.433,2.283,4.358
	c2.65-0.074,8.834-0.442,10.6-1.181c1.769-0.74,5.596-0.445,9.131,0.591c2.839,0.829,4.027,1.326,13.649,1.297
	c0.087-0.03,0.173-0.056,0.258-0.085l0.151,0.087c0,0,3.119-0.104,5.073,2.11c-0.5-0.292-1.079-0.026-2.565,0.06
	c-2.505,0.15-6.7,2.956-9.205,3.252c-2.503,0.296-1.914,1.77,0.664,1.549c2.576-0.221,5.154-2.142,8.688-1.624
	c3.534,0.517,1.178,3.471,1.178,3.471s-6.702,5.91-8.025,12.041c-1.326,6.131-3.02,13.075-6.48,18.171
	c-3.46,5.098-1.252,6.427-0.147,5.689c1.104-0.74,6.845-6.354,7.659-8.865c0.81-2.512,3.971-12.114,4.489-14.552
	c0.514-2.439,4.197-8.568,6.848-10.266c2.649-1.699,9.719-0.075,12,0.665c2.165,0.7,8.56,0.804,10.912,1.253l0.32,0.21
	c5.412,1.546,11.269,3.567,14.906,5.849c0,0,0.958,0.813,1.326,0.813c0.369,0,0.369,0.738,0.735,0.812
	c0.37,0.075,0.517,0.664,1.105,0.739c0.588,0.073,0.588,0.444,1.179,0.665c0.587,0.222,1.398,1.403,1.398,1.403l1.694,0.811
	c0,0-0.222,0.445,0.809,0.592c1.034,0.149,1.398,0.737,1.398,0.737l0.221,0.889l0.589,0.149l0.369,0.589c0,0,0.001,0.74,0.294,0.887
	c0.295,0.147,1.252,1.477,1.989,1.477c0.736,0,0.736,0.37,0.736,0.37s0.737,0.146,1.032-0.149l0.271-0.604
	c0,0,0.592-0.34,0.841-0.34c0.253,0,0.758-1.095,0.758-1.095l0.921-0.757c0,0,0.674-0.17,0.924-0.337
	c0.254-0.169,0.254-0.508,0.423-1.012c0.166-0.506,1.174-1.014,1.765-1.014c0.588,0,0.721-0.971,0.721-0.971
	S105.476,101.419,104.813,101.195z M146.698,83.619c-0.214-1.376,0.214-2.867,0.586-3.747c0.699-0.516,1.218-0.985,1.437-1.377
	c0.493-0.89,1.469-3.75,1.469-0.293C150.189,79.848,148.552,81.755,146.698,83.619z M197.074,25.053
	c1.513-6.321,1.26-12.052,0.842-16.012c-0.422-3.962-3.109-9.439-4.201-9.018c-1.091,0.422,0.249,5.983,0.335,9.861
	c0.076,3.464-2.195,11.154-3.814,15.581c-1.111,2.625-2.294,3.922-3.851,6.78c-1.902-5.459-4.093-12.775-4.093-16.547
	c0-5.814-1.347-1.096-1.347-0.085s-0.335,12.472,1.933,19.298c0.308,0.924,0.576,1.876,0.819,2.839
	c-2.315,4.096-3.333,1.552-3.333,1.552c-0.394-0.992-0.796-2.814-1.014-6.159c-0.025-0.374-0.053-0.727-0.08-1.076
	c-0.348-1.756-0.613-3.732-0.803-5.905c-0.527-2.624-1.052-4.013-1.052-5.238c0-2.022-0.756-4.213-1.343-4.889
	c-0.588-0.674-1.682-2.611-2.941-4.805c-1.26-2.19-3.274-0.672-1.677,2.782c1.593,3.456-0.423,4.719-0.252,8.089
	c0.166,3.371,2.016,16.096,2.6,17.951c0.589,1.855,1.766,9.439,1.936,11.968c0.032,0.5-0.016,1.365-0.121,2.444
	c0,0-0.204,1.226-0.486,3c-4.326-2.755-8.498-4.49-9.39-4.939c-1.678-0.842-5.375-3.034-6.385-4.466
	c-1.008-1.433-2.602-9.019-2.101-2.022c0.431,5.983,10.938,11.843,17.072,16.681c-0.127,0.874-0.25,1.745-0.362,2.572
	c-0.354,2.292-0.329,3.023-0.498,4.09c-0.5,3.203-4.371,8.681-4.371,8.681s-2.179,2.023-6.379,3.372
	c-4.203,1.349-10.082,4.045-11.507,4.72c-1.429,0.674-4.958,2.443-6.218,0.167c-1.259-2.275-0.17-5.309,0.422-6.403
	c0.586-1.097,0.922-4.72,0.586-5.648c-0.338-0.927-1.347-2.024-1.932-2.865c-0.589-0.843-0.589,3.201-0.589,4.633
	c0,1.435,0.169,1.94-1.598,4.047c-1.76,2.106-1.596,5.729-1.596,5.729s-0.333,2.36-0.417,3.12c-0.036,0.295-0.273,0.758-0.564,1.226
	c0.393-1.599-0.933-4.387-0.933-4.387c-1.615,1.036-2.079,1.438-2.662,2.275c-0.863,1.238-0.748,2.805-0.405,4.086
	c0.088,0.494,0.291,1.003,0.484,1.403c-0.01,0.008-0.031,0.023-0.04,0.03c-0.251,0.254-0.921,1.015-1.089,1.601
	c-0.169,0.59-0.421,0.759-2.017,0.591c-1.594-0.169-0.505,1.265-1.177,0.927c-0.674-0.338-0.505,0.76-1.427,0.76
	c-0.923,0-0.758,0.927-1.346,0.927s-0.338,0.083-0.588,0.503c-0.25,0.423-0.587,0.674-1.092,0.674s-0.754,0.675-0.67,1.181
	c0.083,0.506-1.095,0.506-1.095,0.506c-1.174,0.842,1.513,0.842,1.765,0.842c0.251,0,0.251,0,0.926,0.759
	c0.669,0.757,0.083,0.422,0.166,0.843c0.084,0.42,0.674,0.506,1.261,0.674c0.589,0.168,0.922,0.168,1.093,0.589
	c0.169,0.42,3.444,3.119,3.444,3.119s0.335-0.591,0.585-0.508c0.255,0.087,0.339-0.59,0.423-0.842
	c0.082-0.252,0.755-0.505,0.755-0.505l0.758-0.083c0,0,0.253-0.845,0.671-0.591c0.417,0.252,0.67-0.674,0.839-1.179
	c0.17-0.506,1.094-0.337,1.429-0.337c0.337,0,0.506-0.505,0.923-0.759c0.422-0.254,0.588-0.591,1.01-0.591
	c0.42,0,0.841-0.419,1.009-0.842c0.168-0.422,0.754-1.179,1.09-1.179c0.339,0-0.922,0.926,5.125-2.529
	c4.203-2.401,11.688-5.937,17.049-8.101l6.34-2.761c1.229-0.381,2.292-0.715,2.737-0.853c1.343-0.42,3.276-0.167,4.788-1.685
	c1.511-1.517,4.367-4.721,5.038-5.058c0.672-0.335,3.947-3.792,3.947-5.394c0-1.601,0.508-3.119,0.928-3.961
	c0.419-0.843,3.021-8.089,3.021-13.23c0-4.474-1.651-12.963-2.969-16.982c1.142-1.655,1.954-2.705,1.954-2.705
	C195.166,31.777,195.805,30.366,197.074,25.053z M185.394,53.707c-0.099,2.233-0.397,7.216-1.456,11.739
	c-0.55-0.829-1.188-1.622-1.887-2.384c0.055-1.166,0.091-2.438,0.104-3.83c0.207-1.771,0.358-3.671,0.447-5.658
	c0.006-0.16,0.013-0.331,0.02-0.505c0.001-0.016,0.007-0.03,0.014-0.048c0.556-1.954,1.493-4.053,2.556-6.058
	C185.433,49.747,185.47,52.159,185.394,53.707z"/>
</svg>
