<?xml version="1.0" encoding="utf-8"?>
<!-- Generator: Adobe Illustrator 16.0.0, SVG Export Plug-In . SVG Version: 6.00 Build 0)  -->
<!DOCTYPE svg PUBLIC "-//W3C//DTD SVG 1.1//EN" "http://www.w3.org/Graphics/SVG/1.1/DTD/svg11.dtd">
<svg version="1.1" id="Layer_1" xmlns="http://www.w3.org/2000/svg" xmlns:xlink="http://www.w3.org/1999/xlink" x="0px" y="0px"
	 width="567.229px" height="145.623px" viewBox="0 0 567.229 145.623" enable-background="new 0 0 567.229 145.623"
	 xml:space="preserve">
<g>
	<g>
		<path fill="#FFFFFF" d="M54.03,126.21c-2.068-4.451-4.209-9.055-5.797-15.935c-0.893-3.862-1.344-7.689-1.529-11.29
			c-0.535,1.32-1.09,2.721-1.672,4.193c-2.818,7.121-2.43,10.475-2.236,12.32c0.195,1.848,3.111,9.434,11,18.279
			c2.213,2.482,3.965,4.961,5.35,7.248C58.038,134.837,56.151,130.771,54.03,126.21z"/>
		<path fill="#FFFFFF" d="M74.542,127.007c-1.719,2.964-3.307,5.715-4.539,8.984c5.215-6.117,11.803-10.355,11.684-16.893
			c-0.045-2.46-0.309-4.479-0.688-6.146C79.302,118.796,76.888,122.962,74.542,127.007z"/>
	</g>
	<g>
		<path fill="#FFFFFF" d="M57.759,56.202c-0.369-0.123-0.656-0.533-0.82-0.739c-0.164-0.205-1.066-0.533-1.23-0.574
			c-0.166-0.041-0.328-0.738-0.699-0.738c-0.369,0-0.615-0.533-1.066-0.492c-0.449,0.041-0.49-0.575-0.861-0.575
			c-0.369,0-0.492-0.738-1.146-0.697c-0.658,0.041-0.412-0.574-0.412-0.574l-0.941-0.289c0,0-0.578-0.777-0.949-1.229
			c-0.369-0.451-0.998-2.707-1.49-3.362c-0.492-0.657-2.439-2.925-2.809-3.211c-0.371-0.289-1.561-1.47-1.561-1.674
			c0-0.476,0.033-0.545-0.871-0.257c-0.545,0.172-0.158,0.752,0.377,1.245c0.533,0.491,2.248,2.808,2.318,3.205
			c0.055,0.323,0.342,1.962-0.967,1.962c-1.682,0-3.199-0.163-4.02-0.492c-0.82-0.329-3.691-0.943-4.84-0.984
			c-1.148-0.042-2.913-1.19-3.774-2.011c-0.436-0.416-0.98-0.454-2.105-2.229c0,0-0.531-0.313-1.146-1.36
			c0.197-0.923,0.475-1.893,0.872-2.852c1.396-3.364,2.872-6.77,0.943-4.267c-1.927,2.502-1.106-1.476-2.462,1.273
			c-0.271,0.554-0.54,1.07-0.799,1.535c-0.144-0.802-0.26-1.708-0.334-2.738c-0.005-0.07-0.011-0.134-0.016-0.203
			c-0.326-6.967,0.698-11.149,0.533-15.045c-0.164-3.897-1.229-7.424-0.49-13.169c0,0-1.602,1.026-2.79,4.062
			c-1.19,3.036-0.37,2.873-0.37,5.662c0,2.79-0.04,4.923-0.205,6.605c-0.102,1.048-0.093,3.228-0.151,4.83
			c0,0,0.157,2.639-1.435,0.759c-0.248-1.146-0.425-2.289-0.425-3.088c0-1.969-0.04-5.292-0.901-2.831
			c-0.261,0.745-0.39,1.895-0.419,3.204c-0.396-0.716-0.837-1.569-1.335-2.584c-1.226-2.271-2.31-4.846-2.43-7.019
			c-0.287-5.168-0.453-8.082,1.805-11.487c2.256-3.405-0.617-1.559-1.477-0.616c-0.862,0.944-5.088,6.03-4.062,14.81
			c0,0,0.369,0.534-1.846,0.492c-2.215-0.041-0.164,0.656,0.574,0.944c0.738,0.288,2.42,0.984,3.117,2.708
			c0.698,1.724,1.108,1.641,1.395,3.077c0.287,1.436,1.479,1.723,1.928,2.626c0.108,0.216,0.488,0.905,1.002,1.848
			c0,0,1.025,1.158,2.035,2.764c0.092,0.386,0.188,0.728,0.286,1.008c0.862,2.421,0.247,4.634,0.738,6.153
			c0.143,0.438,0.396,0.972,0.682,1.556c-0.347,0.151-0.864,0.214-1.628,0.213c-2.516,0.032-5.745,0.149-7.422-1.154
			c-1.846-1.436-3.486-5.826-3.652-7.015c-0.162-1.19-1.229-7.098-1.763-8.41c-0.532-1.314-1.312-1.929-1.148,0.819
			c0.163,2.749,0,9.6,1.477,12.431s-4.677,3.322-5.538,3.405s-2.092-0.083-2.297-0.615c-0.205-0.533-0.984-1.641-0.656,0.206
			c0.328,1.846-0.207,2.461,1.271,2.42c1.477-0.041,4.923-0.246,5.906-0.656c0.985-0.411,3.118-0.247,5.088,0.328
			c1.582,0.461,2.244,0.737,7.605,0.721c0.048-0.017,0.096-0.031,0.144-0.047l0.084,0.048c0,0,1.737-0.058,2.827,1.172
			c-0.279-0.162-0.602-0.014-1.43,0.034c-1.396,0.083-3.733,1.642-5.129,1.807c-1.395,0.164-1.066,0.983,0.37,0.86
			c1.436-0.123,2.872-1.189,4.841-0.902s0.656,1.928,0.656,1.928s-3.734,3.282-4.472,6.687c-0.738,3.405-1.682,7.262-3.61,10.093
			c-1.928,2.831-0.697,3.569-0.082,3.159s3.814-3.528,4.268-4.923c0.451-1.396,2.213-6.728,2.502-8.082
			c0.286-1.354,2.338-4.758,3.815-5.702c1.476-0.943,5.415-0.042,6.687,0.37c1.206,0.389,4.77,0.446,6.08,0.696l0.178,0.116
			c3.016,0.859,6.279,1.982,8.307,3.249c0,0,0.533,0.452,0.738,0.452s0.205,0.41,0.41,0.451c0.205,0.042,0.287,0.369,0.615,0.411
			c0.328,0.041,0.328,0.247,0.656,0.37c0.328,0.123,0.779,0.779,0.779,0.779l0.943,0.45c0,0-0.123,0.247,0.451,0.329
			c0.576,0.082,0.779,0.409,0.779,0.409l0.123,0.493l0.328,0.083l0.205,0.328c0,0,0.002,0.411,0.164,0.493
			c0.164,0.082,0.699,0.82,1.109,0.82s0.41,0.205,0.41,0.205s0.41,0.082,0.574-0.082l0.15-0.336c0,0,0.33-0.189,0.469-0.189
			c0.141,0,0.422-0.608,0.422-0.608l0.514-0.421c0,0,0.375-0.094,0.516-0.187c0.141-0.094,0.141-0.282,0.234-0.562
			c0.094-0.281,0.654-0.562,0.984-0.562c0.326,0,0.4-0.54,0.4-0.54S58.128,56.326,57.759,56.202z"/>
		<path fill="#FFFFFF" d="M83.042,43.432c0-1.92-0.543-0.331-0.818,0.163c-0.121,0.217-0.41,0.478-0.801,0.765
			c-0.207,0.488-0.445,1.316-0.326,2.081C82.13,45.405,83.042,44.346,83.042,43.432z"/>
		<path fill="#FFFFFF" d="M109.165,13.914c0.844-3.51,0.703-6.693,0.471-8.893c-0.236-2.2-1.734-5.242-2.342-5.008
			c-0.607,0.234,0.139,3.323,0.188,5.476c0.041,1.924-1.225,6.195-2.127,8.653c-0.619,1.458-1.277,2.179-2.145,3.766
			c-1.061-3.032-2.281-7.095-2.281-9.19c0-3.229-0.75-0.608-0.75-0.047s-0.186,6.927,1.078,10.718
			c0.17,0.513,0.32,1.042,0.455,1.576c-1.289,2.275-1.857,0.862-1.857,0.862l0,0c-0.219-0.551-0.443-1.563-0.564-3.421
			c-0.014-0.208-0.029-0.403-0.045-0.598c-0.193-0.975-0.342-2.073-0.447-3.28c-0.293-1.457-0.586-2.229-0.586-2.909
			c0-1.124-0.42-2.34-0.748-2.715c-0.326-0.375-0.936-1.451-1.639-2.668c-0.701-1.217-1.824-0.374-0.934,1.545
			c0.887,1.919-0.236,2.621-0.141,4.493c0.092,1.872,1.123,8.94,1.449,9.97c0.328,1.03,0.982,5.242,1.078,6.646
			c0.018,0.278-0.01,0.758-0.068,1.358c0,0-0.113,0.68-0.271,1.666c-2.41-1.53-4.734-2.494-5.23-2.743
			c-0.936-0.467-2.996-1.685-3.559-2.48c-0.561-0.796-1.449-5.009-1.17-1.123c0.24,3.323,6.094,6.577,9.512,9.264
			c-0.07,0.485-0.139,0.968-0.201,1.428c-0.197,1.273-0.184,1.679-0.277,2.271c-0.279,1.779-2.436,4.822-2.436,4.822
			s-1.215,1.124-3.555,1.872c-2.342,0.749-5.617,2.247-6.41,2.622c-0.797,0.374-2.764,1.356-3.465,0.093
			c-0.701-1.264-0.096-2.949,0.234-3.557c0.326-0.609,0.514-2.621,0.326-3.137c-0.188-0.515-0.75-1.124-1.076-1.591
			c-0.328-0.468-0.328,1.778-0.328,2.573c0,0.797,0.094,1.078-0.889,2.248c-0.982,1.169-0.891,3.182-0.891,3.182
			s-0.186,1.31-0.232,1.732c-0.02,0.164-0.152,0.42-0.314,0.681c0.219-0.888-0.52-2.436-0.52-2.436
			c-0.898,0.575-1.158,0.798-1.482,1.264c-0.482,0.688-0.418,1.558-0.227,2.269c0.049,0.274,0.162,0.558,0.27,0.78
			c-0.004,0.004-0.018,0.013-0.021,0.017c-0.141,0.141-0.514,0.563-0.607,0.889c-0.094,0.327-0.234,0.421-1.123,0.328
			c-0.889-0.094-0.281,0.702-0.656,0.515c-0.375-0.188-0.281,0.422-0.795,0.422s-0.422,0.515-0.75,0.515
			c-0.326,0-0.188,0.046-0.326,0.28c-0.141,0.234-0.328,0.374-0.609,0.374s-0.42,0.375-0.373,0.656
			c0.047,0.281-0.609,0.281-0.609,0.281c-0.654,0.467,0.842,0.467,0.982,0.467s0.141,0,0.516,0.422
			c0.373,0.421,0.047,0.234,0.094,0.468c0.047,0.233,0.375,0.281,0.701,0.375c0.328,0.093,0.514,0.093,0.609,0.327
			c0.094,0.234,1.92,1.732,1.92,1.732s0.186-0.328,0.326-0.282c0.141,0.048,0.188-0.328,0.234-0.468
			c0.047-0.141,0.42-0.281,0.42-0.281l0.424-0.046c0,0,0.141-0.469,0.373-0.328c0.232,0.14,0.373-0.375,0.467-0.655
			c0.096-0.281,0.609-0.188,0.797-0.188s0.281-0.28,0.514-0.421c0.236-0.141,0.328-0.328,0.562-0.328s0.469-0.233,0.562-0.468
			s0.42-0.655,0.607-0.655c0.189,0-0.514,0.514,2.855-1.404c2.342-1.333,6.512-3.297,9.5-4.499l3.531-1.533
			c0.686-0.212,1.277-0.397,1.525-0.474c0.748-0.233,1.826-0.093,2.668-0.936s2.434-2.622,2.807-2.809
			c0.375-0.187,2.201-2.107,2.201-2.996c0-0.889,0.281-1.732,0.516-2.2s1.684-4.493,1.684-7.348c0-2.484-0.92-7.199-1.654-9.431
			c0.637-0.919,1.09-1.502,1.09-1.502C108.103,17.648,108.458,16.865,109.165,13.914z M102.657,29.828
			c-0.055,1.24-0.221,4.008-0.811,6.52c-0.307-0.46-0.662-0.901-1.051-1.324c0.029-0.647,0.051-1.354,0.057-2.127
			c0.115-0.984,0.199-2.04,0.25-3.143c0.002-0.089,0.006-0.183,0.01-0.28c0.002-0.009,0.004-0.017,0.008-0.026
			c0.311-1.086,0.832-2.251,1.424-3.365C102.679,27.628,102.7,28.968,102.657,29.828z"/>
	</g>
	<path fill="#FFFFFF" d="M87.13,70.556c1.562-0.762-5.539,2.097-6.172,2.086c-1.334,1.04-4.631,3.792-5.703,6.356
		c0.064,0.156,0.113,0.238,0.113,0.238s5.93,14.973,2.43,30.141c-3.5,15.166-12.381,18.99-14,36.246
		c-1.621-17.256-8.166-21.08-11.668-36.246c-3.5-15.168,0.098-30.141,0.098-30.141s0.047-0.084,0.113-0.242
		c-1.074-2.562-4.371-5.314-5.703-6.354c-0.631,0.012-7.73-2.845-6.168-2.083c-11.88-5.393-8.239-15.692-8.239-15.692
		c10.631,0.907,17.243,6.222,17.243,6.222c1.275,2.096,3.766,3.359,5.135,3.925l0,0c0.209-0.29,0.342-0.456,0.342-0.456
		s2.334-2.723,2.818-3.208c0.486-0.487,1.459-0.876,2.139-0.39c0.615,0.438,3.357,0.64,3.891,0.674
		c0.531-0.034,3.275-0.235,3.889-0.674c0.68-0.486,1.652-0.098,2.139,0.39c0.486,0.485,2.82,3.208,2.82,3.208
		s0.133,0.166,0.342,0.457l0.002-0.001c1.369-0.565,3.861-1.829,5.135-3.925c0,0,6.613-5.314,17.242-6.222
		C95.366,54.864,99.009,65.164,87.13,70.556z"/>
</g>
<path fill="#FFFFFF" d="M211.835,79.797l-58.621-0.001V65.088h4.771v-32.03h-4.859V18.347h58.709v19.659H195.71v-4.948H181.75v9.45
	h12.149v12.505H181.75v10.075h13.961v-4.95h16.125V79.797z M275.251,79.797h-58.494V65.088h5.522v-32.03h-5.522V18.347h35.125
	v14.711h-5.832v32.03h14.532v-9.851h14.668V79.797z M433.418,79.797h-35.033V65.088h5.656v-32.03h-5.656V18.347h35.033v14.711
	h-5.612v32.03h5.612V79.797z M480.733,80.324h-19.128l-19.618-47.266h-4.555V18.347h33.048v14.711h-5.211l9.141,26.197L484,33.058
	h-5.035V18.347h24.781v14.711h-4.548L480.733,80.324z M567.229,79.797h-58.617V65.088h4.769v-32.03h-4.86V18.347h58.709v19.659
	h-16.123v-4.948h-13.957v9.45h12.146v12.505h-12.146v10.075h13.957v-4.95h16.123V79.797z M392.707,54.583
	c-0.832-1.515-1.876-2.986-3.134-4.417c-1.255-1.429-2.488-2.541-3.695-3.337c-2.376-1.616-7.094-4.184-14.158-7.698
	c-5.269-2.583-8.386-4.251-9.358-5.012c-0.996-0.723-1.495-1.808-1.495-3.256c0-2.997,1.761-4.496,5.275-4.496
	c4.439,0,7.673,2.237,9.716,6.691h16.796V18.347h-77.475v14.711h3.353v25.22c0,4.944-0.504,8.211-1.486,9.805
	c-0.985,1.628-2.587,2.44-4.783,2.44c-2.65,0-4.48-0.958-5.497-2.869c-1.026-1.948-1.531-5.598-1.531-10.95V33.058h3.158V18.347
	h-34.053v14.711h5.114v22.545c0,6.664,0.542,11.603,1.63,14.822c1.054,3.315,2.693,6.141,4.924,8.463
	c0.296,0.317,0.61,0.62,0.933,0.909h40.572c2.043-1.77,3.624-3.876,4.742-6.31c1.777-3.922,2.682-8.961,2.682-15.113V33.058h2.998
	c0,0.153-0.01,1.523-0.01,1.68c0,3.719,0.911,7.113,2.736,10.18c1.829,3.103,4.028,5.527,6.619,7.288
	c2.756,1.933,7.063,4.221,12.92,6.871c4.65,2.067,7.696,3.688,9.145,4.858c1.343,1.071,2.016,2.41,2.016,4.032
	c0,3.1-1.927,4.651-5.789,4.651c-4.775-0.002-8.182-2.515-10.231-7.531h-16.851v14.709h51.381c3.78-3.968,5.677-8.722,5.677-14.259
	C395.546,61.607,394.598,57.957,392.707,54.583z"/>
<g>
	<path fill="#FFFFFF" d="M161.202,127.276h-7.988V88.796h7.988V127.276z"/>
	<path fill="#FFFFFF" d="M179.283,88.796h8.429l15.274,26.83v-26.83h7.492v38.479h-8.039l-15.665-27.302v27.302h-7.492V88.796z"/>
	<path fill="#FFFFFF" d="M251.262,89.631c2.699,0.888,4.886,2.516,6.558,4.882c1.342,1.915,2.256,3.985,2.743,6.214
		c0.488,2.228,0.732,4.351,0.732,6.369c0,5.116-1.028,9.45-3.083,13c-2.787,4.786-7.089,7.18-12.906,7.18h-16.59V88.796h16.59
		C247.691,88.832,249.677,89.11,251.262,89.631z M236.521,95.479v25.113h7.426c3.801,0,6.449-1.87,7.948-5.612
		c0.819-2.054,1.229-4.499,1.229-7.336c0-3.915-0.615-6.922-1.844-9.019c-1.229-2.098-3.674-3.146-7.334-3.146H236.521z"/>
	<path fill="#FFFFFF" d="M306.472,95.61h-20.36v8.171h18.689v6.683h-18.689v9.895h21.3v6.918h-29.157V88.796h28.218V95.61z"/>
	<path fill="#FFFFFF" d="M330.518,127.276h-9.346l12.374-19.605l-11.773-18.874h9.606l6.863,12.532l7.051-12.532h9.294
		l-11.773,18.561l12.504,19.919h-9.764l-7.311-13.121L330.518,127.276z"/>
</g>
<rect x="126.459" fill="#FFFFFF" width="5.379" height="145.623"/>
</svg>
