<?xml version="1.0" encoding="utf-8"?>
<!-- Generator: Adobe Illustrator 16.0.0, SVG Export Plug-In . SVG Version: 6.00 Build 0)  -->
<!DOCTYPE svg PUBLIC "-//W3C//DTD SVG 1.1//EN" "http://www.w3.org/Graphics/SVG/1.1/DTD/svg11.dtd">
<svg version="1.1" id="Layer_1" xmlns="http://www.w3.org/2000/svg" xmlns:xlink="http://www.w3.org/1999/xlink" x="0px" y="0px"
	 width="24px" height="12px" viewBox="0 0 24 12" enable-background="new 0 0 24 12" xml:space="preserve">
<rect fill="#F7F9FB" width="24" height="12"/>
<g>
	<polygon fill="#FFFFFF" points="7.001,8 7.001,7 9,7 9,0 7,0 7,7 0,7 0,9 7,9 7,12 9,12 9,9 7.001,9 	"/>
	<polygon fill="#FFFFFF" points="21,12 21,9 20,9 19,9 19,8 19,7 20,7 21,7 21,0 19,0 19,7 9,7 9,8 9,9 19,9 19,12 	"/>
	<polygon fill="#FFFFFF" points="21,9 24,9 24,7 21,7 21,8 	"/>
	<rect x="11" y="11" fill="#FFFFFF" width="6" height="1"/>
	<rect fill="#FFFFFF" width="1.001" height="5"/>
	<rect x="11" fill="#FFFFFF" width="6" height="1"/>
	<rect x="23" y="11" fill="#FFFFFF" width="1" height="1"/>
	<rect x="3" fill="#FFFFFF" width="2" height="5"/>
	<rect x="23" fill="#FFFFFF" width="1" height="5"/>
	<rect x="11" y="3" fill="#FFFFFF" width="6" height="2"/>
	<rect x="3" y="11" fill="#FFFFFF" width="2" height="1"/>
	<rect y="11" fill="#FFFFFF" width="1.001" height="1"/>
</g>
</svg>
